<svg width="72" height="72" viewBox="0 0 72 72" fill="none" xmlns="http://www.w3.org/2000/svg">
<path d="M12 21C12 19.4087 12.6321 17.8826 13.7574 16.7574C14.8826 15.6321 16.4087 15 18 15H54C55.5913 15 57.1174 15.6321 58.2426 16.7574C59.3679 17.8826 60 19.4087 60 21V57C60 58.5913 59.3679 60.1174 58.2426 61.2426C57.1174 62.3679 55.5913 63 54 63H18C16.4087 63 14.8826 62.3679 13.7574 61.2426C12.6321 60.1174 12 58.5913 12 57V21Z" stroke="#C37000" stroke-width="4" stroke-linecap="round" stroke-linejoin="round"/>
<path d="M48 9V21" stroke="#C37000" stroke-width="4" stroke-linecap="round" stroke-linejoin="round"/>
<path d="M24 9V21" stroke="#C37000" stroke-width="4" stroke-linecap="round" stroke-linejoin="round"/>
<path d="M12 33H60" stroke="#C37000" stroke-width="4" stroke-linecap="round" stroke-linejoin="round"/>
<path d="M21 42H21.039" stroke="#C37000" stroke-width="4" stroke-linecap="round" stroke-linejoin="round"/>
<path d="M30.0293 42H30.0443" stroke="#C37000" stroke-width="4" stroke-linecap="round" stroke-linejoin="round"/>
<path d="M39.0293 42H39.0443" stroke="#C37000" stroke-width="4" stroke-linecap="round" stroke-linejoin="round"/>
<path d="M48.045 42H48.06" stroke="#C37000" stroke-width="4" stroke-linecap="round" stroke-linejoin="round"/>
<path d="M39.045 51H39.06" stroke="#C37000" stroke-width="4" stroke-linecap="round" stroke-linejoin="round"/>
<path d="M21.0293 51H21.0443" stroke="#C37000" stroke-width="4" stroke-linecap="round" stroke-linejoin="round"/>
<path d="M30.0293 51H30.0443" stroke="#C37000" stroke-width="4" stroke-linecap="round" stroke-linejoin="round"/>
</svg>
