<svg width="42" height="34" viewBox="0 0 42 34" fill="none" xmlns="http://www.w3.org/2000/svg">
<path d="M1.5 5.83333C1.5 4.68406 1.95655 3.58186 2.7692 2.7692C3.58186 1.95655 4.68406 1.5 5.83333 1.5H36.1667C37.3159 1.5 38.4181 1.95655 39.2308 2.7692C40.0435 3.58186 40.5 4.68406 40.5 5.83333V27.5C40.5 28.6493 40.0435 29.7515 39.2308 30.5641C38.4181 31.3768 37.3159 31.8333 36.1667 31.8333H5.83333C4.68406 31.8333 3.58186 31.3768 2.7692 30.5641C1.95655 29.7515 1.5 28.6493 1.5 27.5V5.83333Z" stroke="#C37000" stroke-width="3" stroke-linecap="round" stroke-linejoin="round"/>
<path d="M1.5 5.83325L21 18.8333L40.5 5.83325" stroke="#C37000" stroke-width="3" stroke-linecap="round" stroke-linejoin="round"/>
</svg>
