<svg width="34" height="34" viewBox="0 0 34 34" fill="none" xmlns="http://www.w3.org/2000/svg">
<path d="M5.66602 9.91732C5.66602 9.16587 5.96453 8.4452 6.49588 7.91385C7.02723 7.3825 7.7479 7.08398 8.49935 7.08398H25.4993C26.2508 7.08398 26.9715 7.3825 27.5028 7.91385C28.0342 8.4452 28.3327 9.16587 28.3327 9.91732V26.9173C28.3327 27.6688 28.0342 28.3894 27.5028 28.9208C26.9715 29.4521 26.2508 29.7507 25.4993 29.7507H8.49935C7.7479 29.7507 7.02723 29.4521 6.49588 28.9208C5.96453 28.3894 5.66602 27.6688 5.66602 26.9173V9.91732Z" stroke="#0F5C66" stroke-width="3" stroke-linecap="round" stroke-linejoin="round"/>
<path d="M22.666 4.25V9.91667" stroke="#0F5C66" stroke-width="3" stroke-linecap="round" stroke-linejoin="round"/>
<path d="M11.334 4.25V9.91667" stroke="#0F5C66" stroke-width="3" stroke-linecap="round" stroke-linejoin="round"/>
<path d="M5.66602 15.584H28.3327" stroke="#0F5C66" stroke-width="3" stroke-linecap="round" stroke-linejoin="round"/>
<path d="M11.334 21.25H14.1673V24.0833H11.334V21.25Z" stroke="#0F5C66" stroke-width="3" stroke-linecap="round" stroke-linejoin="round"/>
</svg>
